<svg width="1280" height="187" viewBox="0 0 1280 187" fill="none" xmlns="http://www.w3.org/2000/svg">
<g filter="url(#filter0_d_5_15)">
<path d="M-8 97.9999C14 114.167 63.8 146 87 144M87 144C116 141.5 122.5 100.5 91 93.9999C59.5 87.4999 47 138 87 144ZM87 144C152.333 95.8333 331.1 7.39993 523.5 38.9999C764 78.4999 715 74 872 84.9999C990.919 93.3318 945 -16.5001 900.5 3.99994C856 24.4999 895.5 84.9999 978 84.9999C1060.5 84.9999 1227.5 7.49994 1373 84.9999C1489.4 147 1361.17 167.5 1350 178" stroke="#F4F4F4" stroke-width="2" shape-rendering="crispEdges"/>
</g>
<defs>
<filter id="filter0_d_5_15" x="-12.5922" y="0.443527" width="1439.09" height="186.285" filterUnits="userSpaceOnUse" color-interpolation-filters="sRGB">
<feFlood flood-opacity="0" result="BackgroundImageFix"/>
<feColorMatrix in="SourceAlpha" type="matrix" values="0 0 0 0 0 0 0 0 0 0 0 0 0 0 0 0 0 0 127 0" result="hardAlpha"/>
<feOffset dy="4"/>
<feGaussianBlur stdDeviation="2"/>
<feComposite in2="hardAlpha" operator="out"/>
<feColorMatrix type="matrix" values="0 0 0 0 0 0 0 0 0 0 0 0 0 0 0 0 0 0 0.25 0"/>
<feBlend mode="normal" in2="BackgroundImageFix" result="effect1_dropShadow_5_15"/>
<feBlend mode="normal" in="SourceGraphic" in2="effect1_dropShadow_5_15" result="shape"/>
</filter>
</defs>
</svg>
